0
SECTION
2
HEADER
9
$INSUNITS
70
4
9
$ACADVER
1
AC1014
9
$HANDSEED
5
FFFF
0
ENDSEC
0
SECTION
2
TABLES
0
TABLE
2
VPORT
5
8
100
AcDbSymbolTable
0
ENDTAB
0
TABLE
2
LTYPE
5
5
100
AcDbSymbolTable
0
LTYPE
5
14
100
AcDbSymbolTableRecord
100
AcDbLinetypeTableRecord
2
BYBLOCK
70
0
0
LTYPE
5
15
100
AcDbSymbolTableRecord
100
AcDbLinetypeTableRecord
2
BYLAYER
70
0
0
LTYPE
5
16
100
AcDbSymbolTableRecord
100
AcDbLinetypeTableRecord
2
DASHED
70
0
3
Dashed __ __ __ __ __ __ __ __ __ __ __ __ __ _
72
65
73
2
40
0.75
49
0.5
74
0
49
-0.25
74
0
0
ENDTAB
0
TABLE
2
LAYER
5
2
100
AcDbSymbolTable
70
2
0
LAYER
5
50
100
AcDbSymbolTableRecord
100
AcDbLayerTableRecord
2
0
70
0
62
7
6
CONTINUOUS
0
ENDTAB
0
TABLE
2
STYLE
5
3
100
AcDbSymbolTable
70
1
0
STYLE
5
11
100
AcDbSymbolTableRecord
100
AcDbTextStyleTableRecord
2
STANDARD
70
0
0
ENDTAB
0
TABLE
2
VIEW
5
6
100
AcDbSymbolTable
70
0
0
ENDTAB
0
TABLE
2
UCS
5
7
100
AcDbSymbolTable
70
0
0
ENDTAB
0
TABLE
2
APPID
5
9
100
AcDbSymbolTable
70
2
0
APPID
5
12
100
AcDbSymbolTableRecord
100
AcDbRegAppTableRecord
2
ACAD
70
0
0
ENDTAB
0
TABLE
2
DIMSTYLE
5
A
100
AcDbSymbolTable
70
1
0
ENDTAB
0
TABLE
2
BLOCK_RECORD
5
1
100
AcDbSymbolTable
70
1
0
BLOCK_RECORD
5
1F
100
AcDbSymbolTableRecord
100
AcDbBlockTableRecord
2
*MODEL_SPACE
0
BLOCK_RECORD
5
1B
100
AcDbSymbolTableRecord
100
AcDbBlockTableRecord
2
*PAPER_SPACE
0
ENDTAB
0
ENDSEC
0
SECTION
2
BLOCKS
0
BLOCK
5
20
100
AcDbEntity
100
AcDbBlockBegin
2
*MODEL_SPACE
0
ENDBLK
5
21
100
AcDbEntity
100
AcDbBlockEnd
0
BLOCK
5
1C
100
AcDbEntity
100
AcDbBlockBegin
2
*PAPER_SPACE
0
ENDBLK
5
1D
100
AcDbEntity
100
AcDbBlockEnd
0
ENDSEC
0
SECTION
2
ENTITIES
0
POINT
5
100
100
AcDbEntity
8
0
100
AcDbPoint
10
0
20
0
30
0
0
POINT
5
101
100
AcDbEntity
8
0
100
AcDbPoint
10
102.99999999999999
20
-93.00000053642961
30
0
0
POINT
5
102
100
AcDbEntity
8
0
100
AcDbPoint
10
36.999999999999957
20
-27.000000536441853
30
0
0
POINT
5
103
100
AcDbEntity
8
0
100
AcDbPoint
10
130.74072891615472
20
-28.054679405768219
30
0
0
POINT
5
104
100
AcDbEntity
8
0
100
AcDbPoint
10
196.7407289162
20
-94.054679405729615
30
0
0
POINT
5
105
100
AcDbEntity
8
0
100
AcDbPoint
10
163.7407289162
20
-84.054679405729615
30
0
0
LWPOLYLINE
5
106
100
AcDbEntity
8
0
100
AcDbPolyline
90
8
70
1
43
0.0
10
43.000000000000007
20
-93.00000053642961
10
97
20
-93.00000053642961
42
0.41421356237309503
10
102.99999999999999
20
-87.00000053642961
10
102.99999999999996
20
-33.000000536441853
42
0.41421356237309503
10
96.999999999999957
20
-27.000000536441853
10
42.999999999999957
20
-27.000000536441853
42
0.41421356237309503
10
36.999999999999957
20
-33.000000536441853
10
37
20
-87.000000536429596
42
0.41421356237309503
0
CIRCLE
5
107
100
AcDbEntity
8
0
100
AcDbCircle
10
43.000000000000007
20
-87.000000536429596
30
0
40
1.5000000000000011
210
0
220
0
230
1
0
CIRCLE
5
108
100
AcDbEntity
8
0
100
AcDbCircle
10
97
20
-87.00000053642961
30
0
40
1.5000000000000002
210
0
220
0
230
1
0
CIRCLE
5
109
100
AcDbEntity
8
0
100
AcDbCircle
10
42.999999999999957
20
-33.000000536441853
30
0
40
1.5000000000000011
210
0
220
0
230
1
0
CIRCLE
5
110
100
AcDbEntity
8
0
100
AcDbCircle
10
96.999999999999957
20
-33.000000536441853
30
0
40
1.5000000000000011
210
0
220
0
230
1
0
LWPOLYLINE
5
111
100
AcDbEntity
8
0
100
AcDbPolyline
90
8
70
1
43
0.0
10
130.74072891615472
20
-34.054679405768219
10
130.7407289162
20
-88.054679405729601
42
0.41421356237309503
10
136.7407289162
20
-94.054679405729615
10
190.7407289162
20
-94.054679405729615
42
0.41421356237309503
10
196.7407289162
20
-88.054679405729601
10
196.74072891615475
20
-34.054679405768212
42
0.41421356237309503
10
190.74072891615475
20
-28.054679405768212
10
136.74072891615472
20
-28.054679405768219
42
0.41421356237309503
0
CIRCLE
5
112
100
AcDbEntity
8
0
100
AcDbCircle
10
136.74072891615472
20
-34.054679405768219
30
0
40
1.5000000000000011
210
0
220
0
230
1
0
CIRCLE
5
113
100
AcDbEntity
8
0
100
AcDbCircle
10
190.7407289162
20
-88.054679405729601
30
0
40
1.5000000000000002
210
0
220
0
230
1
0
CIRCLE
5
114
100
AcDbEntity
8
0
100
AcDbCircle
10
190.74072891615475
20
-34.054679405768212
30
0
40
1.5000000000000011
210
0
220
0
230
1
0
CIRCLE
5
115
100
AcDbEntity
8
0
100
AcDbCircle
10
136.7407289162
20
-88.054679405729601
30
0
40
1.5000000000000011
210
0
220
0
230
1
0
LWPOLYLINE
5
116
100
AcDbEntity
8
0
100
AcDbPolyline
90
4
70
1
43
0.0
10
140.74072891615472
20
-38.054679405768219
10
140.7407289162
20
-84.054679405729615
10
186.7407289162
20
-84.054679405729615
10
186.74072891615475
20
-38.054679405768212
0
LINE
5
117
100
AcDbEntity
8
0
100
AcDbLine
10
145.64949276338857
20
-87.160720235113786
30
0
11
181.65049044762605
21
-87.072538695539578
31
0
6
DASHED
0
LINE
5
118
100
AcDbEntity
8
0
100
AcDbLine
10
181.65049044762605
20
-87.072538695539578
30
0
11
181.660590160769
21
-91.19584785102353
31
0
6
DASHED
0
LINE
5
119
100
AcDbEntity
8
0
100
AcDbLine
10
181.660590160769
20
-91.19584785102353
30
0
11
145.65959247653151
21
-91.284029390597709
31
0
6
DASHED
0
LINE
5
120
100
AcDbEntity
8
0
100
AcDbLine
10
145.65959247653151
20
-91.284029390597709
30
0
11
145.64949276338857
21
-87.160720235113786
31
0
6
DASHED
0
SPLINE
5
121
100
AcDbEntity
8
0
100
AcDbSpline
70
0
71
2
72
6
73
3
74
0
42
0.000000001
43
0.0000000001
44
0.0000000001
40
0
40
0
40
0
40
1
40
1
40
1
10
150.09296188873947
20
-88.738246502683054
30
0
10
149.18849868819643
20
-88.740461912328414
30
0
10
149.19160401628756
20
-90.008243241140093
30
0
0
SPLINE
5
122
100
AcDbEntity
8
0
100
AcDbSpline
70
0
71
2
72
6
73
3
74
0
42
0.000000001
43
0.0000000001
44
0.0000000001
40
0
40
0
40
0
40
1
40
1
40
1
10
149.19160401628756
20
-90.008243241140093
30
0
10
149.19479326598972
20
-91.310286409082124
30
0
10
150.09925646653275
20
-91.308070999436779
30
0
0
SPLINE
5
123
100
AcDbEntity
8
0
100
AcDbSpline
70
0
71
2
72
6
73
3
74
0
42
0.000000001
43
0.0000000001
44
0.0000000001
40
0
40
0
40
0
40
1
40
1
40
1
10
150.09925646653275
20
-91.308070999436779
30
0
10
151.00546577990647
20
-91.305851312828878
30
0
10
151.00227653020431
20
-90.003808144886861
30
0
0
SPLINE
5
124
100
AcDbEntity
8
0
100
AcDbSpline
70
0
71
2
72
6
73
3
74
0
42
0.000000001
43
0.0000000001
44
0.0000000001
40
0
40
0
40
0
40
1
40
1
40
1
10
151.00227653020431
20
-90.003808144886861
30
0
10
150.99917120211319
20
-88.736026816075196
30
0
10
150.09296188873947
20
-88.738246502683054
30
0
0
SPLINE
5
125
100
AcDbEntity
8
0
100
AcDbSpline
70
0
71
2
72
6
73
3
74
0
42
0.000000001
43
0.0000000001
44
0.0000000001
40
0
40
0
40
0
40
1
40
1
40
1
10
150.09361614793752
20
-89.005354380224446
30
0
10
150.70402041758271
20
-89.003859244208158
30
0
10
150.70646988343609
20
-90.00387823844207
30
0
0
SPLINE
5
126
100
AcDbEntity
8
0
100
AcDbSpline
70
0
71
2
72
6
73
3
74
0
42
0.000000001
43
0.0000000001
44
0.0000000001
40
0
40
0
40
0
40
1
40
1
40
1
10
150.70646988343609
20
-90.00387823844207
30
0
10
150.70731238556721
20
-91.02725091140482
30
0
10
150.09802659372602
20
-91.028743307799942
30
0
0
SPLINE
5
127
100
AcDbEntity
8
0
100
AcDbSpline
70
0
71
2
72
6
73
3
74
0
42
0.000000001
43
0.0000000001
44
0.0000000001
40
0
40
0
40
0
40
1
40
1
40
1
10
150.09802659372602
20
-91.028743307799942
30
0
10
149.48991796042102
20
-91.031924107709244
30
0
10
149.48740849482047
20
-90.007409615105757
30
0
0
SPLINE
5
128
100
AcDbEntity
8
0
100
AcDbSpline
70
0
71
2
72
6
73
3
74
0
42
0.000000001
43
0.0000000001
44
0.0000000001
40
0
40
0
40
0
40
1
40
1
40
1
10
149.48740849482047
20
-90.007409615105757
30
0
10
149.48662155176831
20
-89.006841164520623
30
0
10
150.09361614793752
20
-89.005354380224446
30
0
0
SPLINE
5
129
100
AcDbEntity
8
0
100
AcDbSpline
70
0
71
2
72
6
73
3
74
0
42
0.000000001
43
0.0000000001
44
0.0000000001
40
0
40
0
40
0
40
1
40
1
40
1
10
152.36428096143376
20
-88.732683089845139
30
0
10
151.89026810116189
20
-88.73384414610706
30
0
10
151.63970558627912
20
-88.985732443414477
30
0
0
SPLINE
5
130
100
AcDbEntity
8
0
100
AcDbSpline
70
0
71
2
72
6
73
3
74
0
42
0.000000001
43
0.0000000001
44
0.0000000001
40
0
40
0
40
0
40
1
40
1
40
1
10
151.63970558627912
20
-88.985732443414477
30
0
10
151.38914366744098
20
-89.237620739261928
30
0
10
151.39031367838786
20
-89.715289439454224
30
0
0
SPLINE
5
131
100
AcDbEntity
8
0
100
AcDbSpline
70
0
71
2
72
6
73
3
74
0
42
0.000000001
43
0.0000000001
44
0.0000000001
40
0
40
0
40
0
40
1
40
1
40
1
10
151.39031367838786
20
-89.715289439454224
30
0
10
151.39143758588335
20
-90.174135943359374
30
0
10
151.63402546493768
20
-90.430790351015261
30
0
0
SPLINE
5
132
100
AcDbEntity
8
0
100
AcDbSpline
70
0
71
2
72
6
73
3
74
0
42
0.000000001
43
0.0000000001
44
0.0000000001
40
0
40
0
40
0
40
1
40
1
40
1
10
151.63402546493768
20
-90.430790351015261
30
0
10
151.87661274794732
20
-90.6874447601311
30
0
10
152.32113808681328
20
-90.686355931174063
30
0
0
SPLINE
5
133
100
AcDbEntity
8
0
100
AcDbSpline
70
0
71
2
72
6
73
3
74
0
42
0.000000001
43
0.0000000001
44
0.0000000001
40
0
40
0
40
0
40
1
40
1
40
1
10
152.32113808681328
20
-90.686355931174063
30
0
10
152.58527289359193
20
-90.685708954272997
30
0
10
152.7770846480646
20
-90.581499464620293
30
0
0
SPLINE
5
134
100
AcDbEntity
8
0
100
AcDbSpline
70
0
71
2
72
6
73
3
74
0
42
0.000000001
43
0.0000000001
44
0.0000000001
40
0
40
0
40
0
40
1
40
1
40
1
10
152.7770846480646
20
-90.581499464620293
30
0
10
152.96889640253727
20
-90.477289974967604
30
0
10
153.0534195366717
20
-90.260438184179719
30
0
0
LINE
5
135
100
AcDbEntity
8
0
100
AcDbLine
10
153.0534195366717
20
-90.260438184179719
30
0
11
152.81648935285685
21
-90.108423322635076
31
0
0
SPLINE
5
136
100
AcDbEntity
8
0
100
AcDbSpline
70
0
71
2
72
6
73
3
74
0
42
0.000000001
43
0.0000000001
44
0.0000000001
40
0
40
0
40
0
40
1
40
1
40
1
10
152.81648935285685
20
-90.108423322635076
30
0
10
152.71596027879991
20
-90.272121633011352
30
0
10
152.58801955516864
20
-90.336784679052485
30
0
0
SPLINE
5
137
100
AcDbEntity
8
0
100
AcDbSpline
70
0
71
2
72
6
73
3
74
0
42
0.000000001
43
0.0000000001
44
0.0000000001
40
0
40
0
40
0
40
1
40
1
40
1
10
152.58801955516864
20
-90.336784679052485
30
0
10
152.46007883153737
20
-90.401447725093618
30
0
10
152.30674753491232
20
-90.401823297735234
30
0
0
SPLINE
5
138
100
AcDbEntity
8
0
100
AcDbSpline
70
0
71
2
72
6
73
3
74
0
42
0.000000001
43
0.0000000001
44
0.0000000001
40
0
40
0
40
0
40
1
40
1
40
1
10
152.30674753491232
20
-90.401823297735234
30
0
10
152.01653517822598
20
-90.402534149491075
30
0
10
151.85517000496037
20
-90.22999822384044
30
0
0
SPLINE
5
139
100
AcDbEntity
8
0
100
AcDbSpline
70
0
71
2
72
6
73
3
74
0
42
0.000000001
43
0.0000000001
44
0.0000000001
40
0
40
0
40
0
40
1
40
1
40
1
10
151.85517000496037
20
-90.22999822384044
30
0
10
151.69380542737443
20
-90.057462147718681
30
0
10
151.69300738003986
20
-89.731651321752594
30
0
0
SPLINE
5
140
100
AcDbEntity
8
0
100
AcDbSpline
70
0
71
2
72
6
73
3
74
0
42
0.000000001
43
0.0000000001
44
0.0000000001
40
0
40
0
40
0
40
1
40
1
40
1
10
151.69300738003986
20
-89.731651321752594
30
0
10
151.69213790692027
20
-89.376680202898754
30
0
10
151.8666483739359
20
-89.197361392629062
30
0
0
SPLINE
5
141
100
AcDbEntity
8
0
100
AcDbSpline
70
0
71
2
72
6
73
3
74
0
42
0.000000001
43
0.0000000001
44
0.0000000001
40
0
40
0
40
0
40
1
40
1
40
1
10
151.8666483739359
20
-89.197361392629062
30
0
10
152.04115884022156
20
-89.018042284337042
30
0
10
152.38379988122199
20
-89.017203012748482
30
0
0
SPLINE
5
142
100
AcDbEntity
8
0
100
AcDbSpline
70
0
71
2
72
6
73
3
74
0
42
0.000000001
43
0.0000000001
44
0.0000000001
40
0
40
0
40
0
40
1
40
1
40
1
10
152.38379988122199
20
-89.017203012748482
30
0
10
152.52054563914552
20
-89.016868065045927
30
0
10
152.65171833672153
20
-89.029913149792634
30
0
0
SPLINE
5
143
100
AcDbEntity
8
0
100
AcDbSpline
70
0
71
2
72
6
73
3
74
0
42
0.000000001
43
0.0000000001
44
0.0000000001
40
0
40
0
40
0
40
1
40
1
40
1
10
152.65171833672153
20
-89.029913149792634
30
0
10
152.78289103429759
20
-89.042958234539356
30
0
10
152.94580683331742
20
-89.06888276169353
30
0
0
LINE
5
144
100
AcDbEntity
8
0
100
AcDbLine
10
152.94580683331742
20
-89.06888276169353
30
0
11
152.97792676385876
21
-88.79612960206488
31
0
0
SPLINE
5
145
100
AcDbEntity
8
0
100
AcDbSpline
70
0
71
2
72
6
73
3
74
0
42
0.000000001
43
0.0000000001
44
0.0000000001
40
0
40
0
40
0
40
1
40
1
40
1
10
152.97792676385876
20
-88.79612960206488
30
0
10
152.80908090615608
20
-88.754398095740328
30
0
10
152.65879071511583
20
-88.743364114712648
30
0
0
SPLINE
5
146
100
AcDbEntity
8
0
100
AcDbSpline
70
0
71
2
72
6
73
3
74
0
42
0.000000001
43
0.0000000001
44
0.0000000001
40
0
40
0
40
0
40
1
40
1
40
1
10
152.65879071511583
20
-88.743364114712648
30
0
10
152.50850111939025
20
-88.732329834202673
30
0
10
152.36428096143376
20
-88.732683089845139
30
0
0
SPLINE
5
147
100
AcDbEntity
8
0
100
AcDbSpline
70
0
71
2
72
6
73
3
74
0
42
0.000000001
43
0.0000000001
44
0.0000000001
40
0
40
0
40
0
40
1
40
1
40
1
10
154.46268420009608
20
-88.727543220393301
30
0
10
153.9976447921764
20
-88.728682296907593
30
0
10
153.74177187726946
20
-88.98949005237472
30
0
0
SPLINE
5
148
100
AcDbEntity
8
0
100
AcDbSpline
70
0
71
2
72
6
73
3
74
0
42
0.000000001
43
0.0000000001
44
0.0000000001
40
0
40
0
40
0
40
1
40
1
40
1
10
153.74177187726946
20
-88.98949005237472
30
0
10
153.48589896236251
20
-89.250297807841861
30
0
10
153.48705888350298
20
-89.723847243390793
30
0
0
SPLINE
5
149
100
AcDbEntity
8
0
100
AcDbSpline
70
0
71
2
72
6
73
3
74
0
42
0.000000001
43
0.0000000001
44
0.0000000001
40
0
40
0
40
0
40
1
40
1
40
1
10
153.48705888350298
20
-89.723847243390793
30
0
10
153.48816822530952
20
-90.176747158737044
30
0
10
153.70536405459285
20
-90.42959019369809
30
0
0
SPLINE
5
150
100
AcDbEntity
8
0
100
AcDbSpline
70
0
71
2
72
6
73
3
74
0
42
0.000000001
43
0.0000000001
44
0.0000000001
40
0
40
0
40
0
40
1
40
1
40
1
10
153.70536405459285
20
-90.42959019369809
30
0
10
153.9225598842412
20
-90.682433377670307
30
0
10
154.31683865829226
20
-90.681467623620321
30
0
0
SPLINE
5
151
100
AcDbEntity
8
0
100
AcDbSpline
70
0
71
2
72
6
73
3
74
0
42
0.000000001
43
0.0000000001
44
0.0000000001
40
0
40
0
40
0
40
1
40
1
40
1
10
154.31683865829226
20
-90.681467623620321
30
0
10
154.68574917558078
20
-90.680564007068782
30
0
10
154.88964733092462
20
-90.449221351771897
30
0
0
SPLINE
5
152
100
AcDbEntity
8
0
100
AcDbSpline
70
0
71
2
72
6
73
3
74
0
42
0.000000001
43
0.0000000001
44
0.0000000001
40
0
40
0
40
0
40
1
40
1
40
1
10
154.88964733092462
20
-90.449221351771897
30
0
10
155.09354608267807
20
-90.217878844026217
30
0
10
155.09252634100983
20
-89.80155908351432
30
0
0
SPLINE
5
153
100
AcDbEntity
8
0
100
AcDbSpline
70
0
71
2
72
6
73
3
74
0
42
0.000000001
43
0.0000000001
44
0.0000000001
40
0
40
0
40
0
40
1
40
1
40
1
10
155.09252634100983
20
-89.80155908351432
30
0
10
155.09226255191902
20
-89.693864542305803
30
0
10
155.07697385104453
20
-89.588471190654388
30
0
0
LINE
5
154
100
AcDbEntity
8
0
100
AcDbLine
10
155.07697385104453
20
-89.588471190654388
30
0
11
153.67160127495947
21
-89.591913537406043
31
0
0
LINE
5
155
100
AcDbEntity
8
0
100
AcDbLine
10
153.67160127495947
20
-89.591913537406057
30
0
11
153.672251258655
21
-89.857275898161433
31
0
0
LINE
5
156
100
AcDbEntity
8
0
100
AcDbLine
10
153.672251258655
20
-89.857275898161433
30
0
11
154.80197761744807
21
-89.854508724582246
31
0
0
SPLINE
5
157
100
AcDbEntity
8
0
100
AcDbSpline
70
0
71
2
72
6
73
3
74
0
42
0.000000001
43
0.0000000001
44
0.0000000001
40
0
40
0
40
0
40
1
40
1
40
1
10
154.80197761744807
20
-89.854508724582246
30
0
10
154.80258069617233
20
-90.100721660532315
30
0
10
154.6760614499978
20
-90.250271457604384
30
0
0
SPLINE
5
158
100
AcDbEntity
8
0
100
AcDbSpline
70
0
71
2
72
6
73
3
74
0
42
0.000000001
43
0.0000000001
44
0.0000000001
40
0
40
0
40
0
40
1
40
1
40
1
10
154.6760614499978
20
-90.250271457604384
30
0
10
154.54954279986796
20
-90.399821253216501
30
0
10
154.31958757805657
20
-90.400384509981507
30
0
0
SPLINE
5
159
100
AcDbEntity
8
0
100
AcDbSpline
70
0
71
2
72
6
73
3
74
0
42
0.000000001
43
0.0000000001
44
0.0000000001
40
0
40
0
40
0
40
1
40
1
40
1
10
154.31958757805657
20
-90.400384509981507
30
0
10
154.06363586841127
20
-90.401011443046286
30
0
10
153.92194724565152
20
-90.226449633226181
30
0
0
SPLINE
5
160
100
AcDbEntity
8
0
100
AcDbSpline
70
0
71
2
72
6
73
3
74
0
42
0.000000001
43
0.0000000001
44
0.0000000001
40
0
40
0
40
0
40
1
40
1
40
1
10
153.92194724565152
20
-90.226449633226181
30
0
10
153.78025862289178
20
-90.051887823406076
30
0
10
153.77946171140866
20
-89.726540720185227
30
0
0
SPLINE
5
161
100
AcDbEntity
8
0
100
AcDbSpline
70
0
71
2
72
6
73
3
74
0
42
0.000000001
43
0.0000000001
44
0.0000000001
40
0
40
0
40
0
40
1
40
1
40
1
10
153.77946171140866
20
-89.726540720185227
30
0
10
153.77861408736999
20
-89.380489707686507
30
0
10
153.9665716179322
20
-89.194931905688435
30
0
0
SPLINE
5
162
100
AcDbEntity
8
0
100
AcDbSpline
70
0
71
2
72
6
73
3
74
0
42
0.000000001
43
0.0000000001
44
0.0000000001
40
0
40
0
40
0
40
1
40
1
40
1
10
153.9665716179322
20
-89.194931905688435
30
0
10
154.15452855244976
20
-89.009374105150343
30
0
10
154.50445325919202
20
-89.008516992810115
30
0
0
SPLINE
5
163
100
AcDbEntity
8
0
100
AcDbSpline
70
0
71
2
72
6
73
3
74
0
42
0.000000001
43
0.0000000001
44
0.0000000001
40
0
40
0
40
0
40
1
40
1
40
1
10
154.50445325919202
20
-89.008516992810115
30
0
10
154.60587383431226
20
-89.008268571293101
30
0
10
154.71479878213259
20
-89.02048182638147
30
0
0
SPLINE
5
164
100
AcDbEntity
8
0
100
AcDbSpline
70
0
71
2
72
6
73
3
74
0
42
0.000000001
43
0.0000000001
44
0.0000000001
40
0
40
0
40
0
40
1
40
1
40
1
10
154.71479878213259
20
-89.02048182638147
30
0
10
154.82372432526759
20
-89.032694781987544
30
0
10
154.96287177788329
20
-89.055322372269572
30
0
0
LINE
5
165
100
AcDbEntity
8
0
100
AcDbLine
10
154.96287177788329
20
-89.055322372269572
30
0
11
155.00101929713304
21
-88.781981646194055
31
0
0
SPLINE
5
166
100
AcDbEntity
8
0
100
AcDbSpline
70
0
71
2
72
6
73
3
74
0
42
0.000000001
43
0.0000000001
44
0.0000000001
40
0
40
0
40
0
40
1
40
1
40
1
10
155.00101929713304
20
-88.781981646194041
30
0
10
154.85254491566729
20
-88.749147521649249
30
0
10
154.71983595793276
20
-88.738192964721335
30
0
0
SPLINE
5
167
100
AcDbEntity
8
0
100
AcDbSpline
70
0
71
2
72
6
73
3
74
0
42
0.000000001
43
0.0000000001
44
0.0000000001
40
0
40
0
40
0
40
1
40
1
40
1
10
154.71983595793276
20
-88.738192964721335
30
0
10
154.58712700019822
20
-88.727238407793436
30
0
10
154.46268420009608
20
-88.727543220393301
30
0
0
LINE
5
168
100
AcDbEntity
8
0
100
AcDbLine
10
156.79296740778943
20
-88.73964798316581
30
0
11
156.76640221989322
21
-89.420799192014016
31
0
0
LINE
5
169
100
AcDbEntity
8
0
100
AcDbLine
10
156.76640221989322
20
-89.420799192014016
30
0
11
156.74365414449991
21
-89.443959827377526
31
0
0
LINE
5
170
100
AcDbEntity
8
0
100
AcDbLine
10
156.74365414449991
20
-89.443959827377526
30
0
11
156.74471985566794
21
-89.879047097079038
31
0
0
SPLINE
5
171
100
AcDbEntity
8
0
100
AcDbSpline
70
0
71
2
72
6
73
3
74
0
42
0.000000001
43
0.0000000001
44
0.0000000001
40
0
40
0
40
0
40
1
40
1
40
1
10
156.74471985566794
20
-89.879047097079038
30
0
10
156.74536603104914
20
-90.142854675339521
30
0
10
156.60653736039848
20
-90.26132343865072
30
0
0
SPLINE
5
172
100
AcDbEntity
8
0
100
AcDbSpline
70
0
71
2
72
6
73
3
74
0
42
0.000000001
43
0.0000000001
44
0.0000000001
40
0
40
0
40
0
40
1
40
1
40
1
10
156.60653736039848
20
-90.26132343865072
30
0
10
156.46770749838848
20
-90.379792502904181
30
0
10
156.15841596198385
20
-90.387206009208569
30
0
0
LINE
5
173
100
AcDbEntity
8
0
100
AcDbLine
10
156.15841596198385
20
-90.387206009208569
30
0
11
155.73949633660544
21
-90.395870030141509
31
0
0
LINE
5
174
100
AcDbEntity
8
0
100
AcDbLine
10
155.73949633660544
20
-90.395870030141538
30
0
11
155.77914104721668
21
-90.677803875252309
31
0
0
LINE
5
175
100
AcDbEntity
8
0
100
AcDbLine
10
155.77914104721668
20
-90.677803875252309
30
0
11
156.14822787215422
21
-90.671253312899722
31
0
0
SPLINE
5
176
100
AcDbEntity
8
0
100
AcDbSpline
70
0
71
2
72
6
73
3
74
0
42
0.000000001
43
0.0000000001
44
0.0000000001
40
0
40
0
40
0
40
1
40
1
40
1
10
156.14822787215422
20
-90.671253312899722
30
0
10
156.60820306424998
20
-90.662979724402334
30
0
10
156.82396971789444
20
-90.460345718804547
30
0
0
SPLINE
5
177
100
AcDbEntity
8
0
100
AcDbSpline
70
0
71
2
72
6
73
3
74
0
42
0.000000001
43
0.0000000001
44
0.0000000001
40
0
40
0
40
0
40
1
40
1
40
1
10
156.82396971789444
20
-90.460345718804547
30
0
10
157.0397363719039
20
-90.257711862217903
30
0
10
157.0387197038234
20
-89.842646924725898
30
0
0
LINE
5
178
100
AcDbEntity
8
0
100
AcDbLine
10
157.0387197038234
20
-89.842646924725898
30
0
11
157.03670407263749
21
-89.019745283330352
31
0
0
LINE
5
179
100
AcDbEntity
8
0
100
AcDbLine
10
157.03670407263752
20
-89.019745283330352
30
0
11
157.34818105493994
21
-88.991540284813837
31
0
0
LINE
5
180
100
AcDbEntity
8
0
100
AcDbLine
10
157.34818105493991
20
-88.991540284813837
30
0
11
157.34760570456885
21
-88.756647727063608
31
0
0
LINE
5
181
100
AcDbEntity
8
0
100
AcDbLine
10
157.34760570456885
20
-88.756647727063608
30
0
11
156.79296740778943
21
-88.739647983165838
31
0
0
SPLINE
5
182
100
AcDbEntity
8
0
100
AcDbSpline
70
0
71
2
72
6
73
3
74
0
42
0.000000001
43
0.0000000001
44
0.0000000001
40
0
40
0
40
0
40
1
40
1
40
1
10
156.12119813525584
20
-88.723480824303891
30
0
10
155.83393083523322
20
-88.724184462381018
30
0
10
155.673737340044
20
-88.862578103311662
30
0
0
SPLINE
5
183
100
AcDbEntity
8
0
100
AcDbSpline
70
0
71
2
72
6
73
3
74
0
42
0.000000001
43
0.0000000001
44
0.0000000001
40
0
40
0
40
0
40
1
40
1
40
1
10
155.673737340044
20
-88.862578103311662
30
0
10
155.51354384485478
20
-89.000971744242321
30
0
10
155.51415975227664
20
-89.252422124617382
30
0
0
SPLINE
5
184
100
AcDbEntity
8
0
100
AcDbSpline
70
0
71
2
72
6
73
3
74
0
42
0.000000001
43
0.0000000001
44
0.0000000001
40
0
40
0
40
0
40
1
40
1
40
1
10
155.51415975227664
20
-89.252422124617382
30
0
10
155.51490955877352
20
-89.558538144914493
30
0
10
155.72923256160902
20
-89.713608887744144
30
0
0
SPLINE
5
185
100
AcDbEntity
8
0
100
AcDbSpline
70
0
71
2
72
6
73
3
74
0
42
0.000000001
43
0.0000000001
44
0.0000000001
40
0
40
0
40
0
40
1
40
1
40
1
10
155.72923256160902
20
-89.713608887744144
30
0
10
155.94355675653384
20
-89.868679627653862
30
0
10
156.34653778261691
20
-89.867692558139538
30
0
0
SPLINE
5
186
100
AcDbEntity
8
0
100
AcDbSpline
70
0
71
2
72
6
73
3
74
0
42
0.000000001
43
0.0000000001
44
0.0000000001
40
0
40
0
40
0
40
1
40
1
40
1
10
156.34653778261691
20
-89.867692558139538
30
0
10
156.52878320568524
20
-89.867246162677731
30
0
10
156.68771687422694
20
-89.849153340802815
30
0
0
SPLINE
5
187
100
AcDbEntity
8
0
100
AcDbSpline
70
0
71
2
72
6
73
3
74
0
42
0.000000001
43
0.0000000001
44
0.0000000001
40
0
40
0
40
0
40
1
40
1
40
1
10
156.68771687422694
20
-89.849153340802815
30
0
10
156.84665173412799
20
-89.831060217985623
30
0
10
156.96669288823219
20
-89.782156367065227
30
0
0
LINE
5
188
100
AcDbEntity
8
0
100
AcDbLine
10
156.96669288823219
20
-89.782156367065227
30
0
11
156.92109108303313
21
-89.55124751744404
31
0
0
SPLINE
5
189
100
AcDbEntity
8
0
100
AcDbSpline
70
0
71
2
72
6
73
3
74
0
42
0.000000001
43
0.0000000001
44
0.0000000001
40
0
40
0
40
0
40
1
40
1
40
1
10
156.92109108303313
20
-89.551247517444011
30
0
10
156.77589492002954
20
-89.587746932702032
30
0
10
156.62781609561148
20
-89.594001576647472
30
0
0
SPLINE
5
190
100
AcDbEntity
8
0
100
AcDbSpline
70
0
71
2
72
6
73
3
74
0
42
0.000000001
43
0.0000000001
44
0.0000000001
40
0
40
0
40
0
40
1
40
1
40
1
10
156.62781609561148
20
-89.594001576647472
30
0
10
156.47973727192343
20
-89.600256518615254
30
0
10
156.33903735372729
20
-89.600601151714415
30
0
0
SPLINE
5
191
100
AcDbEntity
8
0
100
AcDbSpline
70
0
71
2
72
6
73
3
74
0
42
0.000000001
43
0.0000000001
44
0.0000000001
40
0
40
0
40
0
40
1
40
1
40
1
10
156.33903735372729
20
-89.600601151714415
30
0
10
155.8108213841893
20
-89.60189497411983
30
0
10
155.80999714511296
20
-89.265391106958262
30
0
0
SPLINE
5
192
100
AcDbEntity
8
0
100
AcDbSpline
70
0
71
2
72
6
73
3
74
0
42
0.000000001
43
0.0000000001
44
0.0000000001
40
0
40
0
40
0
40
1
40
1
40
1
10
155.80999714511296
20
-89.265391106958262
30
0
10
155.80967803290241
20
-89.135110347436438
30
0
10
155.89434342450443
20
-89.065643353487729
30
0
0
SPLINE
5
193
100
AcDbEntity
8
0
100
AcDbSpline
70
0
71
2
72
6
73
3
74
0
42
0.000000001
43
0.0000000001
44
0.0000000001
40
0
40
0
40
0
40
1
40
1
40
1
10
155.89434342450443
20
-89.065643353487729
30
0
10
155.97901000746577
20
-88.99617605859676
30
0
10
156.14071453947065
20
-88.995779976390565
30
0
0
SPLINE
5
194
100
AcDbEntity
8
0
100
AcDbSpline
70
0
71
2
72
6
73
3
74
0
42
0.000000001
43
0.0000000001
44
0.0000000001
40
0
40
0
40
0
40
1
40
1
40
1
10
156.14071453947065
20
-88.995779976390565
30
0
10
156.32323295099312
20
-88.995332912265553
30
0
10
156.45959651466441
20
-89.056511674698541
30
0
0
SPLINE
5
195
100
AcDbEntity
8
0
100
AcDbSpline
70
0
71
2
72
6
73
3
74
0
42
0.000000001
43
0.0000000001
44
0.0000000001
40
0
40
0
40
0
40
1
40
1
40
1
10
156.45959651466441
20
-89.056511674698541
30
0
10
156.59596246251436
20
-89.117690431291635
30
0
10
156.66965486099824
20
-89.218180686586265
30
0
0
SPLINE
5
196
100
AcDbEntity
8
0
100
AcDbSpline
70
0
71
2
72
6
73
3
74
0
42
0.000000001
43
0.0000000001
44
0.0000000001
40
0
40
0
40
0
40
1
40
1
40
1
10
156.66965486099824
20
-89.218180686586265
30
0
10
156.74334725948214
20
-89.31867094188091
30
0
10
156.74363797467629
20
-89.437358334748737
30
0
0
LINE
5
197
100
AcDbEntity
8
0
100
AcDbLine
10
156.74363797467629
20
-89.437358334748737
30
0
11
156.74424098697219
21
-89.683544150666776
31
0
0
LINE
5
198
100
AcDbEntity
8
0
100
AcDbLine
10
156.74424098697219
20
-89.683544150666776
30
0
11
156.93602147588692
21
-89.143153940237937
31
0
0
LINE
5
199
100
AcDbEntity
8
0
100
AcDbLine
10
156.93602147588695
20
-89.143153940237937
30
0
11
156.7275071725752
21
-89.143664679202743
31
0
0
LINE
5
200
100
AcDbEntity
8
0
100
AcDbLine
10
156.7275071725752
20
-89.143664679202743
30
0
11
156.83015409357853
21
-89.254735990752039
31
0
0
SPLINE
5
201
100
AcDbEntity
8
0
100
AcDbSpline
70
0
71
2
72
6
73
3
74
0
42
0.000000001
43
0.0000000001
44
0.0000000001
40
0
40
0
40
0
40
1
40
1
40
1
10
156.8301540935785
20
-89.254735990752025
30
0
10
156.81990024169966
20
-89.066131509699972
30
0
10
156.72393464627027
20
-88.954907039712566
30
0
0
SPLINE
5
202
100
AcDbEntity
8
0
100
AcDbSpline
70
0
71
2
72
6
73
3
74
0
42
0.000000001
43
0.0000000001
44
0.0000000001
40
0
40
0
40
0
40
1
40
1
40
1
10
156.72393464627027
20
-88.954907039712566
30
0
10
156.62797024293022
20
-88.843682566805242
30
0
10
156.47253995660628
20
-88.783341760804277
30
0
0
SPLINE
5
203
100
AcDbEntity
8
0
100
AcDbSpline
70
0
71
2
72
6
73
3
74
0
42
0.000000001
43
0.0000000001
44
0.0000000001
40
0
40
0
40
0
40
1
40
1
40
1
10
156.47253995660628
20
-88.783341760804277
30
0
10
156.31711086237163
20
-88.723000951883378
30
0
10
156.12119813525584
20
-88.723480824303891
30
0
0
LINE
5
204
100
AcDbEntity
8
0
100
AcDbLine
10
158.92938356514674
20
-88.751518608262131
30
0
11
158.93237357000604
21
-89.972218071379771
31
0
0
SPLINE
5
205
100
AcDbEntity
8
0
100
AcDbSpline
70
0
71
2
72
6
73
3
74
0
42
0.000000001
43
0.0000000001
44
0.0000000001
40
0
40
0
40
0
40
1
40
1
40
1
10
158.93237357000604
20
-89.972218071379771
30
0
10
158.93286586853927
20
-90.173203883605709
30
0
10
158.82847246081786
20
-90.279654222741357
30
0
0
SPLINE
5
206
100
AcDbEntity
8
0
100
AcDbSpline
70
0
71
2
72
6
73
3
74
0
42
0.000000001
43
0.0000000001
44
0.0000000001
40
0
40
0
40
0
40
1
40
1
40
1
10
158.82847246081786
20
-90.279654222741357
30
0
10
158.72408143727509
20
-90.386104556037154
30
0
10
158.53526164160999
20
-90.386567054894272
30
0
0
SPLINE
5
207
100
AcDbEntity
8
0
100
AcDbSpline
70
0
71
2
72
6
73
3
74
0
42
0.000000001
43
0.0000000001
44
0.0000000001
40
0
40
0
40
0
40
1
40
1
40
1
10
158.53526164160999
20
-90.386567054894272
30
0
10
158.03615172489575
20
-90.387789584371333
30
0
10
158.03465992964047
20
-89.778749213918744
30
0
0
LINE
5
208
100
AcDbEntity
8
0
100
AcDbLine
10
158.03465992964047
20
-89.778749213918744
30
0
11
157.8565501763604
21
-90.309313164493616
31
0
0
LINE
5
209
100
AcDbEntity
8
0
100
AcDbLine
10
157.8565501763604
20
-90.309313164493616
30
0
11
157.99143985121356
21
-90.308982763116816
31
0
0
SPLINE
5
210
100
AcDbEntity
8
0
100
AcDbSpline
70
0
71
2
72
6
73
3
74
0
42
0.000000001
43
0.0000000001
44
0.0000000001
40
0
40
0
40
0
40
1
40
1
40
1
10
157.99143985121356
20
-90.308982763116816
30
0
10
158.02813435559611
20
-90.478100546184535
30
0
10
158.17062907339411
20
-90.574889795879002
30
0
0
SPLINE
5
211
100
AcDbEntity
8
0
100
AcDbSpline
70
0
71
2
72
6
73
3
74
0
42
0.000000001
43
0.0000000001
44
0.0000000001
40
0
40
0
40
0
40
1
40
1
40
1
10
158.17062907339411
20
-90.574889795879002
30
0
10
158.31312259910277
20
-90.671679048493402
30
0
10
158.55477936967389
20
-90.67108712972869
30
0
0
SPLINE
5
212
100
AcDbEntity
8
0
100
AcDbSpline
70
0
71
2
72
6
73
3
74
0
42
0.000000001
43
0.0000000001
44
0.0000000001
40
0
40
0
40
0
40
1
40
1
40
1
10
158.55477936967389
20
-90.67108712972869
30
0
10
158.87704402793696
20
-90.670297768445835
30
0
10
159.05473087391306
20
-90.484424184070235
30
0
0
SPLINE
5
213
100
AcDbEntity
8
0
100
AcDbSpline
70
0
71
2
72
6
73
3
74
0
42
0.000000001
43
0.0000000001
44
0.0000000001
40
0
40
0
40
0
40
1
40
1
40
1
10
159.05473087391306
20
-90.484424184070235
30
0
10
159.23241652816486
20
-90.298550751625726
30
0
10
159.2316041151563
20
-89.966874995219101
30
0
0
LINE
5
214
100
AcDbEntity
8
0
100
AcDbLine
10
159.2316041151563
20
-89.966874995219101
30
0
11
159.22862540238324
21
-88.750785639522093
31
0
0
LINE
5
215
100
AcDbEntity
8
0
100
AcDbLine
10
159.22862540238324
20
-88.750785639522093
30
0
11
158.92938356514674
21
-88.751518608262131
31
0
0
LINE
5
216
100
AcDbEntity
8
0
100
AcDbLine
10
157.73290735700033
20
-88.754449280212498
30
0
11
157.73752138526189
21
-90.638172580591714
31
0
0
LINE
5
217
100
AcDbEntity
8
0
100
AcDbLine
10
157.73752138526189
20
-90.638172580591714
30
0
11
158.01387629965427
21
-90.637495671522856
31
0
0
LINE
5
218
100
AcDbEntity
8
0
100
AcDbLine
10
158.01387629965427
20
-90.637495671522871
30
0
11
158.03571635361689
21
-90.210044894528608
31
0
0
LINE
5
219
100
AcDbEntity
8
0
100
AcDbLine
10
158.03571635361689
20
-90.210044894528579
30
0
11
158.03214919423684
21
-88.753716311472459
31
0
0
LINE
5
220
100
AcDbEntity
8
0
100
AcDbLine
10
158.03214919423684
20
-88.753716311472459
30
0
11
157.73290735700033
21
-88.754449280212498
31
0
0
LINE
5
221
100
AcDbEntity
8
0
100
AcDbLine
10
162.59888064061496
20
-88.812363184480262
30
0
11
162.60635364816821
21
-91.172686952947132
31
0
0
LINE
5
222
100
AcDbEntity
8
0
100
AcDbLine
10
162.60635364816821
20
-91.172686952947132
30
0
11
162.75218312670597
21
-91.172329755403737
31
0
0
LINE
5
223
100
AcDbEntity
8
0
100
AcDbLine
10
162.75218312670597
20
-91.172329755403737
30
0
11
162.74473753720707
21
-88.812005919778557
31
0
0
LINE
5
224
100
AcDbEntity
8
0
100
AcDbLine
10
162.74473753720707
20
-88.812005919778557
30
0
11
162.59888064061496
21
-88.812363184480262
31
0
0
LINE
5
225
100
AcDbEntity
8
0
100
AcDbLine
10
161.92632949274707
20
-88.744177830980504
30
0
11
161.92701368630284
21
-89.023506710202568
31
0
0
LINE
5
226
100
AcDbEntity
8
0
100
AcDbLine
10
161.92701368630284
20
-89.023506710202582
30
0
11
163.42273173168576
21
-89.019843069512191
31
0
0
LINE
5
227
100
AcDbEntity
8
0
100
AcDbLine
10
163.42273173168576
20
-89.019843069512177
30
0
11
163.42204753812996
21
-88.740514190290099
31
0
0
LINE
5
228
100
AcDbEntity
8
0
100
AcDbLine
10
163.42204753812996
20
-88.740514190290099
30
0
11
161.92632949274707
21
-88.744177830980504
31
0
0
LINE
5
229
100
AcDbEntity
8
0
100
AcDbLine
10
161.93176882914312
20
-90.964841452223368
30
0
11
161.93245302269889
21
-91.244170331445446
31
0
0
LINE
5
230
100
AcDbEntity
8
0
100
AcDbLine
10
161.93245302269889
20
-91.244170331445446
30
0
11
163.42817106808181
21
-91.240506690755041
31
0
0
LINE
5
231
100
AcDbEntity
8
0
100
AcDbLine
10
163.42817106808181
20
-91.240506690755041
30
0
11
163.42748687452601
21
-90.961177811532977
31
0
0
LINE
5
232
100
AcDbEntity
8
0
100
AcDbLine
10
163.42748687452601
20
-90.961177811532977
30
0
11
161.93176882914312
21
-90.964841452223368
31
0
0
LINE
5
233
100
AcDbEntity
8
0
100
AcDbLine
10
165.31537386303319
20
-88.735876640194675
30
0
11
165.31885489662261
21
-90.157043505695441
31
0
0
SPLINE
5
234
100
AcDbEntity
8
0
100
AcDbSpline
70
0
71
2
72
6
73
3
74
0
42
0.000000001
43
0.0000000001
44
0.0000000001
40
0
40
0
40
0
40
1
40
1
40
1
10
165.31885489662261
20
-90.157043505695441
30
0
10
165.31941915565244
20
-90.387407912165713
30
0
10
165.14039237374664
20
-90.38784642382565
30
0
0
SPLINE
5
235
100
AcDbEntity
8
0
100
AcDbSpline
70
0
71
2
72
6
73
3
74
0
42
0.000000001
43
0.0000000001
44
0.0000000001
40
0
40
0
40
0
40
1
40
1
40
1
10
165.14039237374664
20
-90.38784642382565
30
0
10
164.91515663355096
20
-90.388398120601167
30
0
10
164.91436513415184
20
-90.065260554933943
30
0
0
LINE
5
236
100
AcDbEntity
8
0
100
AcDbLine
10
164.91436513415184
20
-90.065260554933943
30
0
11
164.72035157271262
21
-90.395776773392598
31
0
0
LINE
5
237
100
AcDbEntity
8
0
100
AcDbLine
10
164.72035157271262
20
-90.395776773392598
30
0
11
164.85276050969196
21
-90.395452448383082
31
0
0
SPLINE
5
238
100
AcDbEntity
8
0
100
AcDbSpline
70
0
71
2
72
6
73
3
74
0
42
0.000000001
43
0.0000000001
44
0.0000000001
40
0
40
0
40
0
40
1
40
1
40
1
10
164.85276050969196
20
-90.395452448383097
30
0
10
164.87236315176688
20
-90.50244471263224
30
0
10
164.96539184526586
20
-90.578800848987754
30
0
0
SPLINE
5
239
100
AcDbEntity
8
0
100
AcDbSpline
70
0
71
2
72
6
73
3
74
0
42
0.000000001
43
0.0000000001
44
0.0000000001
40
0
40
0
40
0
40
1
40
1
40
1
10
164.96539184526586
20
-90.578800848987754
30
0
10
165.05842053876489
20
-90.655156985343282
30
0
10
165.21636164478824
20
-90.654770121345422
30
0
0
SPLINE
5
240
100
AcDbEntity
8
0
100
AcDbSpline
70
0
71
2
72
6
73
3
74
0
42
0.000000001
43
0.0000000001
44
0.0000000001
40
0
40
0
40
0
40
1
40
1
40
1
10
165.21636164478824
20
-90.654770121345422
30
0
10
165.41969274373901
20
-90.654272078221553
30
0
10
165.51921759253054
20
-90.537099580562014
30
0
0
SPLINE
5
241
100
AcDbEntity
8
0
100
AcDbSpline
70
0
71
2
72
6
73
3
74
0
42
0.000000001
43
0.0000000001
44
0.0000000001
40
0
40
0
40
0
40
1
40
1
40
1
10
165.51921759253054
20
-90.537099580562014
30
0
10
165.6187424413221
20
-90.419927082902447
30
0
10
165.61818145626
20
-90.190899306581599
30
0
0
LINE
5
242
100
AcDbEntity
8
0
100
AcDbLine
10
165.61818145626
20
-90.190899306581599
30
0
11
165.61461570026967
21
-88.735143671454637
31
0
0
LINE
5
243
100
AcDbEntity
8
0
100
AcDbLine
10
165.61461570026972
20
-88.735143671454637
30
0
11
165.31537386303319
21
-88.735876640194675
31
0
0
LINE
5
244
100
AcDbEntity
8
0
100
AcDbLine
10
163.92718585053271
20
-88.739276894744137
30
0
11
163.93179987879424
21
-90.623000195123353
31
0
0
LINE
5
245
100
AcDbEntity
8
0
100
AcDbLine
10
163.93179987879427
20
-90.623000195123353
30
0
11
164.19888153037064
21
-90.622346000163688
31
0
0
LINE
5
246
100
AcDbEntity
8
0
100
AcDbLine
10
164.19888153037064
20
-90.622346000163674
30
0
11
164.23000406754755
21
-90.198636829108693
31
0
0
LINE
5
247
100
AcDbEntity
8
0
100
AcDbLine
10
164.23000406754753
20
-90.198636829108722
30
0
11
164.22642768776922
21
-88.738543926004098
31
0
0
LINE
5
248
100
AcDbEntity
8
0
100
AcDbLine
10
164.22642768776922
20
-88.738543926004098
30
0
11
163.92718585053271
21
-88.739276894744137
31
0
0
LINE
5
249
100
AcDbEntity
8
0
100
AcDbLine
10
164.70244026162857
20
-88.807210684885831
30
0
11
164.70583410036926
21
-90.192779379129163
31
0
0
SPLINE
5
250
100
AcDbEntity
8
0
100
AcDbSpline
70
0
71
2
72
6
73
3
74
0
42
0.000000001
43
0.0000000001
44
0.0000000001
40
0
40
0
40
0
40
1
40
1
40
1
10
164.70583410036926
20
-90.192779379129163
30
0
10
164.70648555424782
20
-90.458741956856898
30
0
10
164.45416196844627
20
-90.459360003124999
30
0
0
SPLINE
5
251
100
AcDbEntity
8
0
100
AcDbSpline
70
0
71
2
72
6
73
3
74
0
42
0.000000001
43
0.0000000001
44
0.0000000001
40
0
40
0
40
0
40
1
40
1
40
1
10
164.45416196844627
20
-90.459360003124999
30
0
10
164.1590662178628
20
-90.460082816360227
30
0
10
164.15827471846367
20
-90.136945250693003
30
0
0
LINE
5
252
100
AcDbEntity
8
0
100
AcDbLine
10
164.15827471846367
20
-90.136945250693003
30
0
11
164.12417997172057
21
-90.327404334354412
31
0
0
LINE
5
253
100
AcDbEntity
8
0
100
AcDbLine
10
164.12417997172057
20
-90.327404334354412
30
0
11
164.22906475840313
21
-90.327147427530647
31
0
0
SPLINE
5
254
100
AcDbEntity
8
0
100
AcDbSpline
70
0
71
2
72
6
73
3
74
0
42
0.000000001
43
0.0000000001
44
0.0000000001
40
0
40
0
40
0
40
1
40
1
40
1
10
164.22906475840313
20
-90.327147427530647
30
0
10
164.27763006523449
20
-90.587236904351954
30
0
10
164.54348267272252
20
-90.586585719836634
30
0
0
SPLINE
5
255
100
AcDbEntity
8
0
100
AcDbSpline
70
0
71
2
72
6
73
3
74
0
42
0.000000001
43
0.0000000001
44
0.0000000001
40
0
40
0
40
0
40
1
40
1
40
1
10
164.54348267272252
20
-90.586585719836634
30
0
10
164.69321266751351
20
-90.586218968293338
30
0
10
164.76842460937078
20
-90.499180381934934
30
0
0
SPLINE
5
256
100
AcDbEntity
8
0
100
AcDbSpline
70
0
71
2
72
6
73
3
74
0
42
0.000000001
43
0.0000000001
44
0.0000000001
40
0
40
0
40
0
40
1
40
1
40
1
10
164.76842460937078
20
-90.499180381934934
30
0
10
164.84363535913877
20
-90.412141798496449
30
0
10
164.84318194745828
20
-90.227031933804653
30
0
0
LINE
5
257
100
AcDbEntity
8
0
100
AcDbLine
10
164.84318194745828
20
-90.227031933804653
30
0
11
164.83970338631673
21
-88.806874469935138
31
0
0
LINE
5
258
100
AcDbEntity
8
0
100
AcDbLine
10
164.83970338631673
20
-88.806874469935124
30
0
11
164.70244026162857
21
-88.807210684885831
31
0
0
LINE
5
259
100
AcDbEntity
8
0
100
AcDbLine
10
166.1178254427486
20
-87.946548367684187
30
0
11
166.12436804056898
21
-90.617629527276705
31
0
0
LINE
5
260
100
AcDbEntity
8
0
100
AcDbLine
10
166.12436804056898
20
-90.617629527276705
30
0
11
166.38615562347766
21
-90.616988299711153
31
0
0
LINE
5
261
100
AcDbEntity
8
0
100
AcDbLine
10
166.38615562347766
20
-90.616988299711181
30
0
11
166.42249079180957
21
-90.160505165504858
31
0
0
LINE
5
262
100
AcDbEntity
8
0
100
AcDbLine
10
166.42249079180957
20
-90.160505165504858
30
0
11
166.41706608789579
21
-87.945815401864081
31
0
0
LINE
5
263
100
AcDbEntity
8
0
100
AcDbLine
10
166.41706608789579
20
-87.945815401864081
30
0
11
166.1178254427486
21
-87.946548367684187
31
0
0
SPLINE
5
264
100
AcDbEntity
8
0
100
AcDbSpline
70
0
71
2
72
6
73
3
74
0
42
0.000000001
43
0.0000000001
44
0.0000000001
40
0
40
0
40
0
40
1
40
1
40
1
10
166.97792034682624
20
-88.696888159074362
30
0
10
166.71168627075602
20
-88.697540277966198
30
0
10
166.56033098730654
20
-88.820363458107309
30
0
0
SPLINE
5
265
100
AcDbEntity
8
0
100
AcDbSpline
70
0
71
2
72
6
73
3
74
0
42
0.000000001
43
0.0000000001
44
0.0000000001
40
0
40
0
40
0
40
1
40
1
40
1
10
166.56033098730654
20
-88.820363458107309
30
0
10
166.40897808803572
20
-88.943186632408583
30
0
10
166.37626233893855
20
-89.128186857836369
30
0
0
LINE
5
266
100
AcDbEntity
8
0
100
AcDbLine
10
166.37626233893855
20
-89.128186857836369
30
0
11
166.22514117591177
21
-89.128557016934039
31
0
0
LINE
5
267
100
AcDbEntity
8
0
100
AcDbLine
10
166.22514117591177
20
-89.128557016934039
30
0
11
166.42132011292946
21
-89.682563774880734
31
0
0
SPLINE
5
268
100
AcDbEntity
8
0
100
AcDbSpline
70
0
71
2
72
6
73
3
74
0
42
0.000000001
43
0.0000000001
44
0.0000000001
40
0
40
0
40
0
40
1
40
1
40
1
10
166.42132011292946
20
-89.682563774880734
30
0
10
166.42041041709069
20
-89.31117132762914
30
0
10
166.54936765091688
20
-89.143188876705665
30
0
0
SPLINE
5
269
100
AcDbEntity
8
0
100
AcDbSpline
70
0
71
2
72
6
73
3
74
0
42
0.000000001
43
0.0000000001
44
0.0000000001
40
0
40
0
40
0
40
1
40
1
40
1
10
166.54936765091688
20
-89.143188876705665
30
0
10
166.67832250056438
20
-88.975206431622027
30
0
10
166.92895451162167
20
-88.974592528729787
30
0
0
SPLINE
5
270
100
AcDbEntity
8
0
100
AcDbSpline
70
0
71
2
72
6
73
3
74
0
42
0.000000001
43
0.0000000001
44
0.0000000001
40
0
40
0
40
0
40
1
40
1
40
1
10
166.92895451162167
20
-88.974592528729787
30
0
10
167.18004905333487
20
-88.97397749290603
30
0
10
167.30963274952049
20
-89.144491088762123
30
0
0
SPLINE
5
271
100
AcDbEntity
8
0
100
AcDbSpline
70
0
71
2
72
6
73
3
74
0
42
0.000000001
43
0.0000000001
44
0.0000000001
40
0
40
0
40
0
40
1
40
1
40
1
10
167.30963274952049
20
-89.144491088762123
30
0
10
167.43921167661884
20
-89.31500439827559
30
0
10
167.4400455368534
20
-89.655436199744742
30
0
0
SPLINE
5
272
100
AcDbEntity
8
0
100
AcDbSpline
70
0
71
2
72
6
73
3
74
0
42
0.000000001
43
0.0000000001
44
0.0000000001
40
0
40
0
40
0
40
1
40
1
40
1
10
167.4400455368534
20
-89.655436199744742
30
0
10
167.44092643564585
20
-90.015071964105587
30
0
10
167.31198340550998
20
-90.193720067369469
30
0
0
SPLINE
5
273
100
AcDbEntity
8
0
100
AcDbSpline
70
0
71
2
72
6
73
3
74
0
42
0.000000001
43
0.0000000001
44
0.0000000001
40
0
40
0
40
0
40
1
40
1
40
1
10
167.31198340550998
20
-90.193720067369469
30
0
10
167.18304037537408
20
-90.372368170633337
30
0
10
166.93409874697181
20
-90.37297793306962
30
0
0
SPLINE
5
274
100
AcDbEntity
8
0
100
AcDbSpline
70
0
71
2
72
6
73
3
74
0
42
0.000000001
43
0.0000000001
44
0.0000000001
40
0
40
0
40
0
40
1
40
1
40
1
10
166.93409874697181
20
-90.37297793306962
30
0
10
166.68382197853174
20
-90.373590965823723
30
0
10
166.55300555961671
20
-90.20595870635313
30
0
0
SPLINE
5
275
100
AcDbEntity
8
0
100
AcDbSpline
70
0
71
2
72
6
73
3
74
0
42
0.000000001
43
0.0000000001
44
0.0000000001
40
0
40
0
40
0
40
1
40
1
40
1
10
166.55300555961671
20
-90.20595870635313
30
0
10
166.42219152415035
20
-90.038326143020356
30
0
10
166.42127908796044
20
-89.665814919942463
30
0
0
LINE
5
276
100
AcDbEntity
8
0
100
AcDbLine
10
166.42127908796044
20
-89.665814919942463
30
0
11
166.2398298922559
21
-90.236131844598603
31
0
0
LINE
5
277
100
AcDbEntity
8
0
100
AcDbLine
10
166.2398298922559
20
-90.236131844598589
30
0
11
166.3716105981639
21
-90.235809058390402
31
0
0
SPLINE
5
278
100
AcDbEntity
8
0
100
AcDbSpline
70
0
71
2
72
6
73
3
74
0
42
0.000000001
43
0.0000000001
44
0.0000000001
40
0
40
0
40
0
40
1
40
1
40
1
10
166.3716105981639
20
-90.235809058390402
30
0
10
166.40524257065437
20
-90.423892849118644
30
0
10
166.56356896214092
20
-90.537487643548943
30
0
0
SPLINE
5
279
100
AcDbEntity
8
0
100
AcDbSpline
70
0
71
2
72
6
73
3
74
0
42
0.000000001
43
0.0000000001
44
0.0000000001
40
0
40
0
40
0
40
1
40
1
40
1
10
166.56356896214092
20
-90.537487643548943
30
0
10
166.72190012198482
20
-90.651082426299524
30
0
10
166.97585806224333
20
-90.650460376812006
30
0
0
SPLINE
5
280
100
AcDbEntity
8
0
100
AcDbSpline
70
0
71
2
72
6
73
3
74
0
42
0.000000001
43
0.0000000001
44
0.0000000001
40
0
40
0
40
0
40
1
40
1
40
1
10
166.97585806224333
20
-90.650460376812006
30
0
10
167.35489001389863
20
-90.649531968623492
30
0
10
167.54852699290552
20
-90.393527619444541
30
0
0
SPLINE
5
281
100
AcDbEntity
8
0
100
AcDbSpline
70
0
71
2
72
6
73
3
74
0
42
0.000000001
43
0.0000000001
44
0.0000000001
40
0
40
0
40
0
40
1
40
1
40
1
10
167.54852699290552
20
-90.393527619444541
30
0
10
167.74216158773373
20
-90.137523276105441
30
0
10
167.7409788824059
20
-89.654671967596826
30
0
0
SPLINE
5
282
100
AcDbEntity
8
0
100
AcDbSpline
70
0
71
2
72
6
73
3
74
0
42
0.000000001
43
0.0000000001
44
0.0000000001
40
0
40
0
40
0
40
1
40
1
40
1
10
167.7409788824059
20
-89.654671967596826
30
0
10
167.73983486318582
20
-89.187614650481621
30
0
10
167.54695949738237
20
-88.941790713355445
30
0
0
SPLINE
5
283
100
AcDbEntity
8
0
100
AcDbSpline
70
0
71
2
72
6
73
3
74
0
42
0.000000001
43
0.0000000001
44
0.0000000001
40
0
40
0
40
0
40
1
40
1
40
1
10
167.54695949738237
20
-88.941790713355445
30
0
10
167.35408651575761
20
-88.695966770389433
30
0
10
166.97792034682624
20
-88.696888159074362
30
0
0
LINE
5
284
100
AcDbEntity
8
0
100
AcDbLine
10
168.81202974050342
20
-89.507636756260041
30
0
11
168.63587568466005
21
-90.146027300872277
31
0
0
LINE
5
285
100
AcDbEntity
8
0
100
AcDbLine
10
168.63587568466005
20
-90.146027300872262
30
0
11
168.76637608663899
21
-90.145707650665258
31
0
0
SPLINE
5
286
100
AcDbEntity
8
0
100
AcDbSpline
70
0
71
2
72
6
73
3
74
0
42
0.000000001
43
0.0000000001
44
0.0000000001
40
0
40
0
40
0
40
1
40
1
40
1
10
168.76637608663899
20
-90.145707650665287
30
0
10
168.82922316897989
20
-90.64592070849676
30
0
10
169.33275216080136
20
-90.644687354851712
30
0
0
SPLINE
5
287
100
AcDbEntity
8
0
100
AcDbSpline
70
0
71
2
72
6
73
3
74
0
42
0.000000001
43
0.0000000001
44
0.0000000001
40
0
40
0
40
0
40
1
40
1
40
1
10
169.33275216080136
20
-90.644687354851712
30
0
10
169.64113136267147
20
-90.643932004874131
30
0
10
169.78128446024471
20
-90.470957644829724
30
0
0
SPLINE
5
288
100
AcDbEntity
8
0
100
AcDbSpline
70
0
71
2
72
6
73
3
74
0
42
0.000000001
43
0.0000000001
44
0.0000000001
40
0
40
0
40
0
40
1
40
1
40
1
10
169.78128446024471
20
-90.470957644829724
30
0
10
169.92144232581026
20
-90.297983124094415
30
0
10
169.92044924307206
20
-89.892547139069109
30
0
0
LINE
5
289
100
AcDbEntity
8
0
100
AcDbLine
10
169.92044924307206
20
-89.892547139069109
30
0
11
169.61951344691261
21
-89.893284257024874
31
0
0
SPLINE
5
290
100
AcDbEntity
8
0
100
AcDbSpline
70
0
71
2
72
6
73
3
74
0
42
0.000000001
43
0.0000000001
44
0.0000000001
40
0
40
0
40
0
40
1
40
1
40
1
10
169.61951344691258
20
-89.893284257024874
30
0
10
169.62018461139081
20
-90.167293884692384
30
0
10
169.545234325487
20
-90.266252496837268
30
0
0
SPLINE
5
291
100
AcDbEntity
8
0
100
AcDbSpline
70
0
71
2
72
6
73
3
74
0
42
0.000000001
43
0.0000000001
44
0.0000000001
40
0
40
0
40
0
40
1
40
1
40
1
10
169.545234325487
20
-90.266252496837268
30
0
10
169.47028403921823
20
-90.365210959971009
30
0
10
169.30296619101941
20
-90.367175732377504
30
0
0
SPLINE
5
292
100
AcDbEntity
8
0
100
AcDbSpline
70
0
71
2
72
6
73
3
74
0
42
0.000000001
43
0.0000000001
44
0.0000000001
40
0
40
0
40
0
40
1
40
1
40
1
10
169.30296619101941
20
-90.367175732377504
30
0
10
169.0610588492799
20
-90.366213324060965
30
0
10
168.93708082520331
20
-90.155968919419792
30
0
0
SPLINE
5
293
100
AcDbEntity
8
0
100
AcDbSpline
70
0
71
2
72
6
73
3
74
0
42
0.000000001
43
0.0000000001
44
0.0000000001
40
0
40
0
40
0
40
1
40
1
40
1
10
168.93708082520331
20
-90.155968919419792
30
0
10
168.81310280112672
20
-89.94572451477859
30
0
10
168.81202974050342
20
-89.507636756260041
30
0
0
LINE
5
294
100
AcDbEntity
8
0
100
AcDbLine
10
168.06583505831864
20
-88.729139607380574
30
0
11
168.06650214694429
21
-89.001485227369287
31
0
0
LINE
5
295
100
AcDbEntity
8
0
100
AcDbLine
10
168.06650214694429
20
-89.001485227369287
30
0
11
169.32257805270595
21
-88.998408570767609
31
0
0
LINE
5
296
100
AcDbEntity
8
0
100
AcDbLine
10
169.32257805270595
20
-88.998408570767609
30
0
11
169.3219109640803
21
-88.726062950778882
31
0
0
LINE
5
297
100
AcDbEntity
8
0
100
AcDbLine
10
169.3219109640803
20
-88.726062950778882
30
0
11
168.06583505831864
21
-88.729139607380574
31
0
0
LINE
5
298
100
AcDbEntity
8
0
100
AcDbLine
10
168.58090763081913
20
-88.797710691946662
30
0
11
168.58517956230276
21
-90.54176955271484
31
0
0
LINE
5
299
100
AcDbEntity
8
0
100
AcDbLine
10
168.58517956230276
20
-90.541769552714854
30
0
11
168.69958675846908
21
-90.541489321517247
31
0
0
LINE
5
300
100
AcDbEntity
8
0
100
AcDbLine
10
168.69958675846908
20
-90.541489321517219
30
0
11
168.74178657384587
21
-90.052694054602568
31
0
0
LINE
5
301
100
AcDbEntity
8
0
100
AcDbLine
10
168.74178657384587
20
-90.052694054602568
30
0
11
168.73871164657072
21
-88.797324163740342
31
0
0
LINE
5
302
100
AcDbEntity
8
0
100
AcDbLine
10
168.73871164657072
20
-88.79732416374037
30
0
11
168.58090763081907
21
-88.797710691946662
31
0
0
LINE
5
303
100
AcDbEntity
8
0
100
AcDbLine
10
168.20999969977507
20
-90.410006549102789
30
0
11
168.21032469162282
21
-90.542687729480491
31
0
0
LINE
5
304
100
AcDbEntity
8
0
100
AcDbLine
10
168.21032469162282
20
-90.542687729480491
30
0
11
168.65220359219958
21
-90.541605382760537
31
0
0
LINE
5
305
100
AcDbEntity
8
0
100
AcDbLine
10
168.65220359219958
20
-90.541605382760537
30
0
11
168.66049740613147
21
-90.408903091313391
31
0
0
LINE
5
306
100
AcDbEntity
8
0
100
AcDbLine
10
168.66049740613147
20
-90.408903091313391
30
0
11
168.20999969977507
21
-90.410006549102789
31
0
0
LINE
5
307
100
AcDbEntity
8
0
100
AcDbLine
10
171.10212408952754
20
-88.791535175621291
30
0
11
171.10617739953534
21
-90.446339626841223
31
0
0
LINE
5
308
100
AcDbEntity
8
0
100
AcDbLine
10
171.10617739953528
20
-90.446339626841223
30
0
11
171.26398141528693
21
-90.445953098634931
31
0
0
LINE
5
309
100
AcDbEntity
8
0
100
AcDbLine
10
171.26398141528693
20
-90.445953098634931
30
0
11
171.25992810527916
21
-88.791148647414985
31
0
0
LINE
5
310
100
AcDbEntity
8
0
100
AcDbLine
10
171.25992810527916
20
-88.791148647414985
30
0
11
171.10212408952751
21
-88.791535175621291
31
0
0
LINE
5
311
100
AcDbEntity
8
0
100
AcDbLine
10
170.37123505434312
20
-88.793325429351086
30
0
11
170.37156004582587
21
-88.926006460717616
31
0
0
LINE
5
312
100
AcDbEntity
8
0
100
AcDbLine
10
170.37156004582587
20
-88.926006460717616
30
0
11
171.06682468378781
21
-88.924303466074946
31
0
0
LINE
5
313
100
AcDbEntity
8
0
100
AcDbLine
10
171.06682468378781
20
-88.924303466074946
30
0
11
171.06649969230506
21
-88.791622434708415
31
0
0
LINE
5
314
100
AcDbEntity
8
0
100
AcDbLine
10
171.06649969230506
20
-88.791622434708415
30
0
11
170.37123505434312
21
-88.793325429351086
31
0
0
LINE
5
315
100
AcDbEntity
8
0
100
AcDbLine
10
171.2238036428331
20
-88.721404418090771
30
0
11
171.22447073145875
21
-88.993750038079483
31
0
0
LINE
5
316
100
AcDbEntity
8
0
100
AcDbLine
10
171.22447073145872
20
-88.993750038079483
30
0
11
171.92939606126546
21
-88.992023380351498
31
0
0
LINE
5
317
100
AcDbEntity
8
0
100
AcDbLine
10
171.92939606126549
20
-88.992023380351498
30
0
11
171.92872897263985
21
-88.719677760362771
31
0
0
LINE
5
318
100
AcDbEntity
8
0
100
AcDbLine
10
171.92872897263985
20
-88.719677760362742
30
0
11
171.2238036428331
21
-88.721404418090742
31
0
0
LINE
5
319
100
AcDbEntity
8
0
100
AcDbLine
10
170.4061340133598
20
-90.334794581986273
30
0
11
170.40680110162046
21
-90.607140052963828
31
0
0
LINE
5
320
100
AcDbEntity
8
0
100
AcDbLine
10
170.40680110162046
20
-90.607140052963828
30
0
11
171.33594889570136
21
-90.604864180397939
31
0
0
LINE
5
321
100
AcDbEntity
8
0
100
AcDbLine
10
171.33594889570139
20
-90.604864180397939
30
0
11
171.33528180744077
21
-90.332518709420384
31
0
0
LINE
5
322
100
AcDbEntity
8
0
100
AcDbLine
10
171.33528180744077
20
-90.332518709420384
30
0
11
170.40613401335986
21
-90.334794581986273
31
0
0
SPLINE
5
323
100
AcDbEntity
8
0
100
AcDbSpline
70
0
71
2
72
6
73
3
74
0
42
0.000000001
43
0.0000000001
44
0.0000000001
40
0
40
0
40
0
40
1
40
1
40
1
10
171.16827343959105
20
-90.92999660232411
30
0
10
171.07154731221078
20
-90.930233525170095
30
0
10
171.00248230486829
20
-90.998489433320088
30
0
0
SPLINE
5
324
100
AcDbEntity
8
0
100
AcDbSpline
70
0
71
2
72
6
73
3
74
0
42
0.000000001
43
0.0000000001
44
0.0000000001
40
0
40
0
40
0
40
1
40
1
40
1
10
171.00248230486829
20
-90.998489433320088
30
0
10
170.93341729752581
20
-91.06674534147011
30
0
10
170.93365175412873
20
-91.162464600408896
30
0
0
SPLINE
5
325
100
AcDbEntity
8
0
100
AcDbSpline
70
0
71
2
72
6
73
3
74
0
42
0.000000001
43
0.0000000001
44
0.0000000001
40
0
40
0
40
0
40
1
40
1
40
1
10
170.93365175412873
20
-91.162464600408896
30
0
10
170.93590763567937
20
-91.25997927172655
30
0
10
171.00356163650429
20
-91.328173138775313
30
0
0
SPLINE
5
326
100
AcDbEntity
8
0
100
AcDbSpline
70
0
71
2
72
6
73
3
74
0
42
0.000000001
43
0.0000000001
44
0.0000000001
40
0
40
0
40
0
40
1
40
1
40
1
10
171.00356163650429
20
-91.328173138775313
30
0
10
171.07121563732915
20
-91.396367005824061
30
0
10
171.1694151871082
20
-91.396126473948783
30
0
0
SPLINE
5
327
100
AcDbEntity
8
0
100
AcDbSpline
70
0
71
2
72
6
73
3
74
0
42
0.000000001
43
0.0000000001
44
0.0000000001
40
0
40
0
40
0
40
1
40
1
40
1
10
171.1694151871082
20
-91.396126473948783
30
0
10
171.26696624029751
20
-91.395887530513576
30
0
10
171.33563400343792
20
-91.327032225795705
30
0
0
SPLINE
5
328
100
AcDbEntity
8
0
100
AcDbSpline
70
0
71
2
72
6
73
3
74
0
42
0.000000001
43
0.0000000001
44
0.0000000001
40
0
40
0
40
0
40
1
40
1
40
1
10
171.33563400343792
20
-91.327032225795705
30
0
10
171.40430176730831
20
-91.258177219100162
30
0
10
171.40406316842444
20
-91.160766832450548
30
0
0
SPLINE
5
329
100
AcDbEntity
8
0
100
AcDbSpline
70
0
71
2
72
6
73
3
74
0
42
0.000000001
43
0.0000000001
44
0.0000000001
40
0
40
0
40
0
40
1
40
1
40
1
10
171.40406316842444
20
-91.160766832450548
30
0
10
171.4038316518226
20
-91.06624785844528
30
0
10
171.3350998686663
20
-90.998002092923826
30
0
0
SPLINE
5
330
100
AcDbEntity
8
0
100
AcDbSpline
70
0
71
2
72
6
73
3
74
0
42
0.000000001
43
0.0000000001
44
0.0000000001
40
0
40
0
40
0
40
1
40
1
40
1
10
171.3350998686663
20
-90.998002092923826
30
0
10
171.26636808551001
20
-90.929756327402373
30
0
10
171.16827343959105
20
-90.92999660232411
30
0
0
LINE
5
331
100
AcDbEntity
8
0
100
AcDbLine
10
173.60636580861754
20
-88.715568524270466
30
0
11
173.60935581347684
21
-89.936267987388106
31
0
0
SPLINE
5
332
100
AcDbEntity
8
0
100
AcDbSpline
70
0
71
2
72
6
73
3
74
0
42
0.000000001
43
0.0000000001
44
0.0000000001
40
0
40
0
40
0
40
1
40
1
40
1
10
173.60935581347687
20
-89.936267987388106
30
0
10
173.60984811201007
20
-90.137253799614015
30
0
10
173.50545232011004
20
-90.243704144589515
30
0
0
SPLINE
5
333
100
AcDbEntity
8
0
100
AcDbSpline
70
0
71
2
72
6
73
3
74
0
42
0.000000001
43
0.0000000001
44
0.0000000001
40
0
40
0
40
0
40
1
40
1
40
1
10
173.50545232011004
20
-90.243704144589515
30
0
10
173.40106129656726
20
-90.350154477885326
30
0
10
173.21223911672351
20
-90.350616982582295
30
0
0
SPLINE
5
334
100
AcDbEntity
8
0
100
AcDbSpline
70
0
71
2
72
6
73
3
74
0
42
0.000000001
43
0.0000000001
44
0.0000000001
40
0
40
0
40
0
40
1
40
1
40
1
10
173.21223911672351
20
-90.350616982582295
30
0
10
172.71313039209858
20
-90.351839509139438
30
0
10
172.71163859684333
20
-89.742799138686848
30
0
0
LINE
5
335
100
AcDbEntity
8
0
100
AcDbLine
10
172.71163859684333
20
-89.742799138686848
30
0
11
172.53352765147389
21
-90.27336309218164
31
0
0
LINE
5
336
100
AcDbEntity
8
0
100
AcDbLine
10
172.53352765147395
20
-90.27336309218164
30
0
11
172.6684197105057
21
-90.273032684964974
31
0
0
SPLINE
5
337
100
AcDbEntity
8
0
100
AcDbSpline
70
0
71
2
72
6
73
3
74
0
42
0.000000001
43
0.0000000001
44
0.0000000001
40
0
40
0
40
0
40
1
40
1
40
1
10
172.6684197105057
20
-90.273032684964974
30
0
10
172.70511659906691
20
-90.44215046219287
30
0
10
172.84760893268626
20
-90.538939717727175
30
0
0
SPLINE
5
338
100
AcDbEntity
8
0
100
AcDbSpline
70
0
71
2
72
6
73
3
74
0
42
0.000000001
43
0.0000000001
44
0.0000000001
40
0
40
0
40
0
40
1
40
1
40
1
10
172.84760893268626
20
-90.538939717727175
30
0
10
172.99010126630563
20
-90.635728973261507
30
0
10
173.23176161314473
20
-90.635137045737011
30
0
0
SPLINE
5
339
100
AcDbEntity
8
0
100
AcDbSpline
70
0
71
2
72
6
73
3
74
0
42
0.000000001
43
0.0000000001
44
0.0000000001
40
0
40
0
40
0
40
1
40
1
40
1
10
173.23176161314473
20
-90.635137045737011
30
0
10
173.55402627140776
20
-90.634347684454156
30
0
10
173.73170834902658
20
-90.448474111758259
30
0
0
SPLINE
5
340
100
AcDbEntity
8
0
100
AcDbSpline
70
0
71
2
72
6
73
3
74
0
42
0.000000001
43
0.0000000001
44
0.0000000001
40
0
40
0
40
0
40
1
40
1
40
1
10
173.73170834902658
20
-90.448474111758259
30
0
10
173.90939519536772
20
-90.262600676393831
30
0
10
173.90858278235919
20
-89.930924919987206
30
0
0
LINE
5
341
100
AcDbEntity
8
0
100
AcDbLine
10
173.90858278235919
20
-89.930924919987206
30
0
11
173.9056040695861
21
-88.714835564290198
31
0
0
LINE
5
342
100
AcDbEntity
8
0
100
AcDbLine
10
173.9056040695861
20
-88.714835564290198
30
0
11
173.60636580861754
21
-88.715568524270452
31
0
0
LINE
5
343
100
AcDbEntity
8
0
100
AcDbLine
10
172.4098848321139
20
-88.718499207900535
30
0
11
172.41449886037543
21
-90.602222508279752
31
0
0
LINE
5
344
100
AcDbEntity
8
0
100
AcDbLine
10
172.41449886037543
20
-90.602222508279752
30
0
11
172.69085854312507
21
-90.601545587531191
31
0
0
LINE
5
345
100
AcDbEntity
8
0
100
AcDbLine
10
172.69085854312507
20
-90.601545587531191
30
0
11
172.71269502081975
21
-90.174094819296684
31
0
0
LINE
5
346
100
AcDbEntity
8
0
100
AcDbLine
10
172.71269502081975
20
-90.174094819296684
30
0
11
172.7091278614397
21
-88.717766236240564
31
0
0
LINE
5
347
100
AcDbEntity
8
0
100
AcDbLine
10
172.7091278614397
20
-88.717766236240564
30
0
11
172.4098848321139
21
-88.718499207900521
31
0
0
SPLINE
5
348
100
AcDbEntity
8
0
100
AcDbSpline
70
0
71
2
72
6
73
3
74
0
42
0.000000001
43
0.0000000001
44
0.0000000001
40
0
40
0
40
0
40
1
40
1
40
1
10
175.58214925825746
20
-88.675812794471582
30
0
10
175.21577252681743
20
-88.6767102047191
30
0
10
175.03876971133366
20
-88.867355565913485
30
0
0
SPLINE
5
349
100
AcDbEntity
8
0
100
AcDbSpline
70
0
71
2
72
6
73
3
74
0
42
0.000000001
43
0.0000000001
44
0.0000000001
40
0
40
0
40
0
40
1
40
1
40
1
10
175.03876971133366
20
-88.867355565913485
30
0
10
174.86176212822258
20
-89.058001236809915
30
0
10
174.86270656899819
20
-89.443578652896008
30
0
0
LINE
5
350
100
AcDbEntity
8
0
100
AcDbLine
10
174.86270656899819
20
-89.443578652896008
30
0
11
174.86351757861701
21
-89.774681461373476
31
0
0
LINE
5
351
100
AcDbEntity
8
0
100
AcDbLine
10
174.86351757861701
20
-89.774681461373476
30
0
11
175.16447721656283
21
-89.773944285019184
31
0
0
LINE
5
352
100
AcDbEntity
8
0
100
AcDbLine
10
175.16447721656283
20
-89.773944285019184
30
0
11
175.16367936997324
21
-89.4482154151938
31
0
0
SPLINE
5
353
100
AcDbEntity
8
0
100
AcDbSpline
70
0
71
2
72
6
73
3
74
0
42
0.000000001
43
0.0000000001
44
0.0000000001
40
0
40
0
40
0
40
1
40
1
40
1
10
175.16367936997324
20
-89.4482154151938
30
0
10
175.1630603214403
20
-89.195482644733346
30
0
10
175.27209300783545
20
-89.07817793057751
30
0
0
SPLINE
5
354
100
AcDbEntity
8
0
100
AcDbSpline
70
0
71
2
72
6
73
3
74
0
42
0.000000001
43
0.0000000001
44
0.0000000001
40
0
40
0
40
0
40
1
40
1
40
1
10
175.27209300783545
20
-89.07817793057751
30
0
10
175.38112092514339
20
-88.960872930079034
30
0
10
175.6170783166782
20
-88.960294971483492
30
0
0
SPLINE
5
355
100
AcDbEntity
8
0
100
AcDbSpline
70
0
71
2
72
6
73
3
74
0
42
0.000000001
43
0.0000000001
44
0.0000000001
40
0
40
0
40
0
40
1
40
1
40
1
10
175.6170783166782
20
-88.960294971483492
30
0
10
175.71795291489013
20
-88.960047887292873
30
0
10
175.80607009752018
20
-88.968724793016406
30
0
0
SPLINE
5
356
100
AcDbEntity
8
0
100
AcDbSpline
70
0
71
2
72
6
73
3
74
0
42
0.000000001
43
0.0000000001
44
0.0000000001
40
0
40
0
40
0
40
1
40
1
40
1
10
175.80607009752018
20
-88.968724793016406
30
0
10
175.89418728015019
20
-88.977401698739925
30
0
10
176.03733074029182
20
-88.993499925520823
30
0
0
LINE
5
357
100
AcDbEntity
8
0
100
AcDbLine
10
176.03733074029182
20
-88.993499925520823
30
0
11
176.0674088593355
21
-88.72255213084091
31
0
0
SPLINE
5
358
100
AcDbEntity
8
0
100
AcDbSpline
70
0
71
2
72
6
73
3
74
0
42
0.000000001
43
0.0000000001
44
0.0000000001
40
0
40
0
40
0
40
1
40
1
40
1
10
176.0674088593355
20
-88.72255213084091
30
0
10
175.92080082109487
20
-88.695605669673824
30
0
10
175.81311082548407
20
-88.685558111175567
30
0
0
SPLINE
5
359
100
AcDbEntity
8
0
100
AcDbSpline
70
0
71
2
72
6
73
3
74
0
42
0.000000001
43
0.0000000001
44
0.0000000001
40
0
40
0
40
0
40
1
40
1
40
1
10
175.81311082548407
20
-88.685558111175567
30
0
10
175.70541606224594
20
-88.675510862379326
30
0
10
175.58214925825746
20
-88.675812794471582
30
0
0
LINE
5
360
100
AcDbEntity
8
0
100
AcDbLine
10
174.86301118158309
20
-89.567939794879763
30
0
11
174.86687259766327
21
-91.144401626137039
31
0
0
LINE
5
361
100
AcDbEntity
8
0
100
AcDbLine
10
174.86687259766325
20
-91.144401626137025
30
0
11
175.16783223560907
21
-91.143664449782733
31
0
0
LINE
5
362
100
AcDbEntity
8
0
100
AcDbLine
10
175.16783223560907
20
-91.143664449782733
30
0
11
175.16397081952888
21
-89.567202618525457
31
0
0
LINE
5
363
100
AcDbEntity
8
0
100
AcDbLine
10
175.16397081952891
20
-89.567202618525457
30
0
11
174.86301118158309
21
-89.567939794879749
31
0
0
LINE
5
364
100
AcDbEntity
8
0
100
AcDbLine
10
174.34281348819781
20
-90.325152003190368
30
0
11
174.34348057682345
21
-90.597497623179081
31
0
0
LINE
5
365
100
AcDbEntity
8
0
100
AcDbLine
10
174.34348057682342
20
-90.597497623179081
30
0
11
176.003522174446
21
-90.593431485203695
31
0
0
LINE
5
366
100
AcDbEntity
8
0
100
AcDbLine
10
176.003522174446
20
-90.593431485203709
30
0
11
176.00285508582036
21
-90.321085865214997
31
0
0
LINE
5
367
100
AcDbEntity
8
0
100
AcDbLine
10
176.00285508582039
20
-90.321085865214968
30
0
11
174.34281348819781
21
-90.325152003190368
31
0
0
SPLINE
5
368
100
AcDbEntity
8
0
100
AcDbSpline
70
0
71
2
72
6
73
3
74
0
42
0.000000001
43
0.0000000001
44
0.0000000001
40
0
40
0
40
0
40
1
40
1
40
1
10
177.20986616189384
20
-88.671825833226436
30
0
10
177.00631452641898
20
-88.672324416536725
30
0
10
176.86437619166387
20
-88.684906271100999
30
0
0
SPLINE
5
369
100
AcDbEntity
8
0
100
AcDbSpline
70
0
71
2
72
6
73
3
74
0
42
0.000000001
43
0.0000000001
44
0.0000000001
40
0
40
0
40
0
40
1
40
1
40
1
10
176.86437619166387
20
-88.684906271100999
30
0
10
176.72243785763871
20
-88.697488423687588
30
0
10
176.58282958674891
20
-88.732746590513059
30
0
0
LINE
5
370
100
AcDbEntity
8
0
100
AcDbLine
10
176.58282958674891
20
-88.732746590513059
30
0
11
176.61542993217643
21
-89.012624634464004
31
0
0
SPLINE
5
371
100
AcDbEntity
8
0
100
AcDbSpline
70
0
71
2
72
6
73
3
74
0
42
0.000000001
43
0.0000000001
44
0.0000000001
40
0
40
0
40
0
40
1
40
1
40
1
10
176.61542993217643
20
-89.012624634464018
30
0
10
176.83064203739605
20
-88.98364602131079
30
0
10
176.95889768341823
20
-88.970170230333864
30
0
0
SPLINE
5
372
100
AcDbEntity
8
0
100
AcDbSpline
70
0
71
2
72
6
73
3
74
0
42
0.000000001
43
0.0000000001
44
0.0000000001
40
0
40
0
40
0
40
1
40
1
40
1
10
176.95889768341823
20
-88.970170230333864
30
0
10
177.08715809706771
20
-88.95669412965492
30
0
10
177.21056318341724
20
-88.956391858851177
30
0
0
SPLINE
5
373
100
AcDbEntity
8
0
100
AcDbSpline
70
0
71
2
72
6
73
3
74
0
42
0.000000001
43
0.0000000001
44
0.0000000001
40
0
40
0
40
0
40
1
40
1
40
1
10
177.21056318341724
20
-88.956391858851177
30
0
10
177.53839251462352
20
-88.955588867350869
30
0
10
177.67639710335342
20
-89.01900028123012
30
0
0
SPLINE
5
374
100
AcDbEntity
8
0
100
AcDbSpline
70
0
71
2
72
6
73
3
74
0
42
0.000000001
43
0.0000000001
44
0.0000000001
40
0
40
0
40
0
40
1
40
1
40
1
10
177.67639710335342
20
-89.01900028123012
30
0
10
177.81440646117059
20
-89.082411981452026
30
0
10
177.81473265566314
20
-89.215584153618167
30
0
0
SPLINE
5
375
100
AcDbEntity
8
0
100
AcDbSpline
70
0
71
2
72
6
73
3
74
0
42
0.000000001
43
0.0000000001
44
0.0000000001
40
0
40
0
40
0
40
1
40
1
40
1
10
177.81473265566314
20
-89.215584153618167
30
0
10
177.81496022963404
20
-89.308493509019854
30
0
10
177.75380955743472
20
-89.3684784888802
30
0
0
SPLINE
5
376
100
AcDbEntity
8
0
100
AcDbSpline
70
0
71
2
72
6
73
3
74
0
42
0.000000001
43
0.0000000001
44
0.0000000001
40
0
40
0
40
0
40
1
40
1
40
1
10
177.75380955743472
20
-89.3684784888802
30
0
10
177.69266365359269
20
-89.428463457060843
30
0
10
177.54711091137548
20
-89.464418063571017
30
0
0
LINE
5
377
100
AcDbEntity
8
0
100
AcDbLine
10
177.54711091137548
20
-89.464418063571017
30
0
11
177.13999230717295
21
-89.568172791502505
31
0
0
SPLINE
5
378
100
AcDbEntity
8
0
100
AcDbSpline
70
0
71
2
72
6
73
3
74
0
42
0.000000001
43
0.0000000001
44
0.0000000001
40
0
40
0
40
0
40
1
40
1
40
1
10
177.13999230717295
20
-89.568172791502491
30
0
10
176.86664320864276
20
-89.637693061880185
30
0
10
176.7398312654326
20
-89.757783146775949
30
0
0
SPLINE
5
379
100
AcDbEntity
8
0
100
AcDbSpline
70
0
71
2
72
6
73
3
74
0
42
0.000000001
43
0.0000000001
44
0.0000000001
40
0
40
0
40
0
40
1
40
1
40
1
10
176.7398312654326
20
-89.757783146775949
30
0
10
176.61302408984972
20
-89.877872921969669
30
0
10
176.61350215629562
20
-90.0730483418414
30
0
0
SPLINE
5
380
100
AcDbEntity
8
0
100
AcDbSpline
70
0
71
2
72
6
73
3
74
0
42
0.000000001
43
0.0000000001
44
0.0000000001
40
0
40
0
40
0
40
1
40
1
40
1
10
176.61350215629562
20
-90.0730483418414
30
0
10
176.61422376652112
20
-90.367652951625246
30
0
10
176.84917299638019
20
-90.496676975408036
30
0
0
SPLINE
5
381
100
AcDbEntity
8
0
100
AcDbSpline
70
0
71
2
72
6
73
3
74
0
42
0.000000001
43
0.0000000001
44
0.0000000001
40
0
40
0
40
0
40
1
40
1
40
1
10
176.84917299638019
20
-90.496676975408036
30
0
10
177.08412222623929
20
-90.625700999190826
30
0
10
177.58778950042176
20
-90.624467306834276
30
0
0
SPLINE
5
382
100
AcDbEntity
8
0
100
AcDbSpline
70
0
71
2
72
6
73
3
74
0
42
0.000000001
43
0.0000000001
44
0.0000000001
40
0
40
0
40
0
40
1
40
1
40
1
10
177.58778950042176
20
-90.624467306834276
30
0
10
177.70260200695674
20
-90.624186082861627
30
0
10
177.81263554798969
20
-90.615692142009976
30
0
0
SPLINE
5
383
100
AcDbEntity
8
0
100
AcDbSpline
70
0
71
2
72
6
73
3
74
0
42
0.000000001
43
0.0000000001
44
0.0000000001
40
0
40
0
40
0
40
1
40
1
40
1
10
177.81263554798969
20
-90.615692142009976
30
0
10
177.92266908902263
20
-90.607198201158326
30
0
10
178.07624252867041
20
-90.583035240437198
30
0
0
LINE
5
384
100
AcDbEntity
8
0
100
AcDbLine
10
178.07624252867041
20
-90.583035240437198
30
0
11
178.04506314096432
21
-90.314828959795491
31
0
0
SPLINE
5
385
100
AcDbEntity
8
0
100
AcDbSpline
70
0
71
2
72
6
73
3
74
0
42
0.000000001
43
0.0000000001
44
0.0000000001
40
0
40
0
40
0
40
1
40
1
40
1
10
178.04506314096432
20
-90.314828959795491
30
0
10
177.8691256263063
20
-90.329117280966287
30
0
10
177.76722388698715
20
-90.334413323444494
30
0
0
SPLINE
5
386
100
AcDbEntity
8
0
100
AcDbSpline
70
0
71
2
72
6
73
3
74
0
42
0.000000001
43
0.0000000001
44
0.0000000001
40
0
40
0
40
0
40
1
40
1
40
1
10
177.76722388698715
20
-90.334413323444494
30
0
10
177.66532691639031
20
-90.339709503254127
30
0
10
177.57683574202883
20
-90.339926255247022
30
0
0
SPLINE
5
387
100
AcDbEntity
8
0
100
AcDbSpline
70
0
71
2
72
6
73
3
74
0
42
0.000000001
43
0.0000000001
44
0.0000000001
40
0
40
0
40
0
40
1
40
1
40
1
10
177.57683574202883
20
-90.339926255247022
30
0
10
177.22022937465107
20
-90.340799733775953
30
0
10
177.07007737428
20
-90.276435935521022
30
0
0
SPLINE
5
388
100
AcDbEntity
8
0
100
AcDbSpline
70
0
71
2
72
6
73
3
74
0
42
0.000000001
43
0.0000000001
44
0.0000000001
40
0
40
0
40
0
40
1
40
1
40
1
10
177.07007737428
20
-90.276435935521022
30
0
10
176.91993014226628
20
-90.212072125586417
30
0
10
176.91960040626776
20
-90.077454098086932
30
0
0
SPLINE
5
389
100
AcDbEntity
8
0
100
AcDbSpline
70
0
71
2
72
6
73
3
74
0
42
0.000000001
43
0.0000000001
44
0.0000000001
40
0
40
0
40
0
40
1
40
1
40
1
10
176.91960040626776
20
-90.077454098086932
30
0
10
176.91940871162515
20
-89.999192838220324
30
0
10
176.99146156244137
20
-89.941827608519858
30
0
0
SPLINE
5
390
100
AcDbEntity
8
0
100
AcDbSpline
70
0
71
2
72
6
73
3
74
0
42
0.000000001
43
0.0000000001
44
0.0000000001
40
0
40
0
40
0
40
1
40
1
40
1
10
176.99146156244137
20
-89.941827608519858
30
0
10
177.06351441252758
20
-89.88446208079705
30
0
10
177.2398445011446
20
-89.841612103745831
30
0
0
LINE
5
391
100
AcDbEntity
8
0
100
AcDbLine
10
177.2398445011446
20
-89.841612103745831
30
0
11
177.56516351379148
21
-89.762062685938986
31
0
0
SPLINE
5
392
100
AcDbEntity
8
0
100
AcDbSpline
70
0
71
2
72
6
73
3
74
0
42
0.000000001
43
0.0000000001
44
0.0000000001
40
0
40
0
40
0
40
1
40
1
40
1
10
177.56516351379148
20
-89.762062685938986
30
0
10
177.85408569136752
20
-89.690404094601661
30
0
10
177.98771884610863
20
-89.56156817528543
30
0
0
SPLINE
5
393
100
AcDbEntity
8
0
100
AcDbSpline
70
0
71
2
72
6
73
3
74
0
42
0.000000001
43
0.0000000001
44
0.0000000001
40
0
40
0
40
0
40
1
40
1
40
1
10
177.98771884610863
20
-89.56156817528543
30
0
10
178.12135200157974
20
-89.432732553991542
30
0
10
178.12082248675679
20
-89.216552818333383
30
0
0
SPLINE
5
394
100
AcDbEntity
8
0
100
AcDbSpline
70
0
71
2
72
6
73
3
74
0
42
0.000000001
43
0.0000000001
44
0.0000000001
40
0
40
0
40
0
40
1
40
1
40
1
10
178.12082248675679
20
-89.216552818333383
30
0
10
178.12011557617194
20
-88.927949484205996
30
0
10
177.90065977458738
20
-88.799310257731761
30
0
0
SPLINE
5
395
100
AcDbEntity
8
0
100
AcDbSpline
70
0
71
2
72
6
73
3
74
0
42
0.000000001
43
0.0000000001
44
0.0000000001
40
0
40
0
40
0
40
1
40
1
40
1
10
177.90065977458738
20
-88.799310257731761
30
0
10
177.68120397373286
20
-88.670671329279855
30
0
10
177.20986616189384
20
-88.671825833226436
30
0
0
ENDSEC
0
SECTION
2
OBJECTS
0
DICTIONARY
5
C
100
AcDbDictionary
3
ACAD_GROUP
350
D
3
ACAD_MLINESTYLE
350
17
0
DICTIONARY
5
D
100
AcDbDictionary
0
DICTIONARY
5
1A
330
C
100
AcDbDictionary
0
DICTIONARY
5
17
100
AcDbDictionary
0
ENDSEC
0
EOF
